<svg id="Layer_1" data-name="Layer 1" xmlns="http://www.w3.org/2000/svg" viewBox="0 0 702.86 265.22"><defs><style>.cls-1{fill:#00b7f1;}.cls-2{fill:#f16522;}.cls-3{fill:#23221d;}.cls-4{fill:#fff;}</style></defs><title>Artboard 1</title><polygon class="cls-1" points="108.5 214.7 85.51 180.21 12.09 248.71 143.84 251.24 164.7 230.06 108.5 214.7"/><polygon class="cls-1" points="137.97 180.77 189.16 205.22 197.64 196.61 198.73 110.28 171.94 99.56 132.18 136.66 137.97 180.77"/><polygon class="cls-2" points="12.09 248.71 61.21 205.84 64.78 96.89 95.14 49.56 169.26 65.64 180.87 98.68 205.88 99.57 191.58 54.92 136.22 14.73 74.6 17.41 22.8 60.28 11.2 152.26 12.09 248.71"/><path class="cls-3" d="M567.57,197.72c0-35.2-50.29-27.58-50.29-39.79,0-2.91,2.34-4,5.94-4,8.46,0,23.57,6,33.4,11.36l4.37-9.15h24.24v69.19l32.2-32.15v-37h27.71V134.45h31l26.75-26.75H662.43V37.3h-32.2v76.31l-31-76.29h-33l-32.61,77.23V37.3H504.51V87.2L466.13,37.3h-26.9v76.31l-31-76.29h-33l-31,73.4L331,96.61c-6.36,6.8-15.09,11.09-22,11.09C297.4,107.7,289,98.28,289,85.24S297.41,63.07,309,63.07c7.49,0,16.22,5.13,22,13l18.59-22c-10-10.82-26.2-17.75-41-17.75-30.47,0-52.66,20.8-52.66,49.35,0,20.58,11,37.17,27.94,45.1h-30.7l31.46,97.16H317.8l13.86-58.06,13.44,58.06h33.13L402,155.2v72.73h83.44v-9.82a86.93,86.93,0,0,0,41.31,10.8C548.59,228.91,567.57,219.34,567.57,197.72ZM581.76,69.3l10,28.42H571.51Zm-18.57,51.42h36.44l3.56,10H559.54Zm-261,73.8-14.32-62.05a56.73,56.73,0,0,0,19.44,3.37,46.81,46.81,0,0,0,8.35-.84ZM390.72,69.3l10,28.42H380.5Zm19.15,61.47h-32.8l-14.42,63.75-13.84-60.07h18.38l5-13.73h36.44l3.56,10Zm117.06,73.61c-9.84,0-27-6.8-37-15.11l-7.05,14.28h-48.8V191.49h45.46v-24.4H434.08V155.17h50v-24.4H468.49V84.83l37,48c-13.12,4.91-21.06,14.78-21.06,28.16,0,34.09,50.31,25.77,50.31,38.39,0,3.47-3.06,5-7.77,5Z"/><path class="cls-3" d="M108.5,0A108.62,108.62,0,0,0,0,108.5V265.22H151.52a27.91,27.91,0,0,0,19.73-8.17l37.59-37.58A27.91,27.91,0,0,0,217,199.74V108.5A108.63,108.63,0,0,0,108.5,0Zm24.17,241.11H41.16l42.47-42.5a84.51,84.51,0,0,0,61,41.51A85.62,85.62,0,0,1,132.67,241.11ZM72.33,175.83V108.5a48.26,48.26,0,0,1,48.22-48.22,27.89,27.89,0,0,1,19.72,47.61ZM156.72,217a60.27,60.27,0,0,1-55.15-36.31L121,161.31a60.26,60.26,0,0,0,47.82,54.48A60.22,60.22,0,0,1,156.72,217Zm12.06-26.48a35.76,35.76,0,0,1,0-67.62ZM120.55,36.17A72.4,72.4,0,0,0,48.22,108.5v91.44L24.11,224.05V108.5A84.23,84.23,0,0,1,164.88,45.91a11.81,11.81,0,0,1,3.89,8.75A72,72,0,0,0,120.55,36.17Z"/><path class="cls-4" d="M156.72,217a60.27,60.27,0,0,1-55.15-36.31L121,161.31a60.26,60.26,0,0,0,47.82,54.48A60.22,60.22,0,0,1,156.72,217Z"/></svg>