<svg id="Layer_1" data-name="Layer 1" xmlns="http://www.w3.org/2000/svg" viewBox="0 0 800 345"><defs><style>.cls-1{fill:#23221d;}</style></defs><title>Artboard 1</title><path class="cls-1" d="M553.81,282.64c0-59.41-84.89-46.55-84.89-67.16,0-4.91,3.95-6.75,10-6.75,14.28,0,39.78,10.13,56.37,19.17l7.38-15.44h40.92V329.25L638,275V212.53h46.78V175.85h52.32l45.15-45.15H713.92V11.87H659.57V140.68L607.25,11.91h-55.7l-55,130.35V11.87H447.37V96.1L382.59,11.87H337.18V140.68L284.86,11.91h-55.7L176.84,135.8,154.57,112c-10.73,11.48-25.47,18.72-37.13,18.72-19.65,0-33.91-15.9-33.91-37.91s14.28-37.42,33.91-37.42c12.64,0,27.38,8.66,37.13,21.94L186,40.18c-16.88-18.26-44.22-30-69.2-30-51.43,0-88.89,35.11-88.89,83.3,0,34.73,18.49,62.73,47.16,76.12H23.2l53.11,164h55.92l23.39-98,22.68,98h55.92l40.11-122.76V333.63H415.16V317.06a146.79,146.79,0,0,0,69.73,18.23C521.77,335.29,553.81,319.13,553.81,282.64Zm24-216.75,16.88,48H560.46Zm-31.35,86.79h61.51l6,16.87H540.25ZM105.88,277.24,81.71,172.51a95.79,95.79,0,0,0,32.81,5.69,80.23,80.23,0,0,0,14.09-1.42ZM255.31,65.89l16.87,48H238.06Zm32.32,103.75H232.27l-24.34,107.6L184.57,175.85h31L224,152.68h61.51l6,16.87ZM485.21,293.88c-16.61,0-45.57-11.47-62.45-25.5l-11.9,24.1H328.49V272.13h76.73V230.94H328.49V210.82h84.4V169.64H386.57V92.1l62.45,81c-22.14,8.28-35.54,24.94-35.54,47.53,0,57.54,84.91,43.49,84.91,64.79,0,5.86-5.16,8.44-13.11,8.44Z"/></svg>