<svg id="Layer_1" data-name="Layer 1" xmlns="http://www.w3.org/2000/svg" viewBox="0 0 400 490"><defs><style>.cls-1{fill:#00b7f1;}.cls-2{fill:#f16522;}.cls-3{fill:#1e1d1a;}.cls-4{fill:#fff;}</style></defs><title>Artboard 1</title><polygon class="cls-1" points="199.63 389.11 159.12 328.32 29.73 449.04 261.91 453.5 298.68 416.18 199.63 389.11"/><polygon class="cls-1" points="251.57 329.31 341.78 372.4 356.73 357.23 358.65 205.08 311.44 186.19 241.37 251.57 251.57 329.31"/><polygon class="cls-2" points="29.73 449.04 116.29 373.49 122.58 181.49 176.09 98.07 306.71 126.41 327.17 184.64 371.25 186.21 346.05 107.52 248.49 36.69 139.89 41.41 48.6 116.97 28.16 279.06 29.73 449.04"/><path class="cls-3" d="M199.63,10.73C94.08,10.85,8.54,96.39,8.42,202V478.14h267a49.18,49.18,0,0,0,34.77-14.4l66.25-66.23a49.22,49.22,0,0,0,14.38-34.77V202C390.72,96.39,305.19,10.86,199.63,10.73Zm42.6,424.92H81l74.84-74.9A148.92,148.92,0,0,0,263.31,433.9,150.35,150.35,0,0,1,242.23,435.65Zm-106.34-115V202a85,85,0,0,1,85-85,49.14,49.14,0,0,1,34.75,83.9Zm148.72,72.56a106.21,106.21,0,0,1-97.19-64L221.57,295a106.2,106.2,0,0,0,84.28,96A106.64,106.64,0,0,1,284.61,393.16Zm21.26-46.67a63,63,0,0,1,0-119.17Zm-85-272A127.59,127.59,0,0,0,93.4,202V363.09L50.91,405.58V202A148.44,148.44,0,0,1,299,91.64a20.83,20.83,0,0,1,6.86,15.42A126.92,126.92,0,0,0,220.87,74.48Z"/><path class="cls-4" d="M284.61,393.16a106.21,106.21,0,0,1-97.19-64L221.57,295a106.2,106.2,0,0,0,84.28,96A106.64,106.64,0,0,1,284.61,393.16Z"/></svg>